HIERARCHY
ROOT Hips
{
	OFFSET -0.179506 -22.333345 2.821913
	CHANNELS 6 Xposition Yposition Zposition Zrotation Yrotation Xrotation 
	JOINT LeftUpLeg
	{
		OFFSET 6.951974 -9.140623 -0.681533
		CHANNELS 3 Zrotation Yrotation Xrotation
		JOINT LeftLeg
		{
			OFFSET 3.427654 -37.519855 -0.449580
			CHANNELS 3 Zrotation Yrotation Xrotation
			JOINT LeftFoot
			{
				OFFSET -1.359570 -39.796059 -4.369333
				CHANNELS 3 Zrotation Yrotation Xrotation
				JOINT LeftToe
				{
					OFFSET 2.635814 -5.579078 11.928840
					CHANNELS 3 Zrotation Yrotation Xrotation
					End Site
					{
						OFFSET 0.000000 0.000000 0.000000
					}
				}
			}
		}
	}
	JOINT RightUpLeg
	{
		OFFSET -6.767048 -9.052170 -0.431982
		CHANNELS 3 Zrotation Yrotation Xrotation
		JOINT RightLeg
		{
			OFFSET -3.829005 -38.256897 -0.885003
			CHANNELS 3 Zrotation Yrotation Xrotation
			JOINT RightFoot
			{
				OFFSET 1.577377 -39.841461 -4.231180
				CHANNELS 3 Zrotation Yrotation Xrotation
				JOINT RightToe
				{
					OFFSET -2.537174 -4.814398 12.334795
					CHANNELS 3 Zrotation Yrotation Xrotation
					End Site
					{
						OFFSET 0.000000 0.000000 0.000000
					}
				}
			}
		}
	}
	JOINT Spine
	{
		OFFSET -0.253288 10.896323 -2.669631
		CHANNELS 3 Zrotation Yrotation Xrotation
		JOINT Spine1
		{
			OFFSET 0.548704 13.518043 0.109247
			CHANNELS 3 Zrotation Yrotation Xrotation
			JOINT Spine2
			{
				OFFSET 0.145701 5.292222 2.542457
				CHANNELS 3 Zrotation Yrotation Xrotation
				JOINT Neck
				{
					OFFSET -0.277840 21.387037 -4.285703
					CHANNELS 3 Zrotation Yrotation Xrotation
					JOINT Head
					{
						OFFSET 0.515184 6.496960 5.134897
						CHANNELS 3 Zrotation Yrotation Xrotation
						End Site
						{
							OFFSET 0.000000 0.000000 0.000000
						}
					}
				}
				JOINT LeftShoulder
				{
					OFFSET 7.884473 12.174932 -3.408961
					CHANNELS 3 Zrotation Yrotation Xrotation
					JOINT LeftArm
					{
						OFFSET 9.097692 3.046888 -0.886815
						CHANNELS 3 Zrotation Yrotation Xrotation
						JOINT LeftForeArm
						{
							OFFSET 25.961220 -1.277207 -2.745643
							CHANNELS 3 Zrotation Yrotation Xrotation
							JOINT LeftHand
							{
								OFFSET 24.923361 0.898606 -0.117091
								CHANNELS 3 Zrotation Yrotation Xrotation
								End Site
								{
									OFFSET 0.000000 0.000000 0.000000
								}
							}
						}
					}
				}
				JOINT RightShoulder
				{
					OFFSET -8.175920 11.883285 -3.861528
					CHANNELS 3 Zrotation Yrotation Xrotation
					JOINT RightArm
					{
						OFFSET -9.601238 3.255117 -0.914307
						CHANNELS 3 Zrotation Yrotation Xrotation
						JOINT RightForeArm
						{
							OFFSET -25.374195 -1.332924 -2.140099
							CHANNELS 3 Zrotation Yrotation Xrotation
							JOINT RightHand
							{
								OFFSET -25.529810 0.777228 -0.555919
								CHANNELS 3 Zrotation Yrotation Xrotation
								End Site
								{
									OFFSET 0.000000 0.000000 0.000000
								}
							}
						}
					}
				}
			}
		}
	}
}
MOTION
Frames: 9
Frame Time: 0.033333
1.560956 -9.414857 95.332771 -134.710825 0.346315 92.724285 5.381692 -5.754762 -35.312636 -5.114226 11.990802 10.770228 3.598655 8.142317 5.044976 nan nan nan 1.027187 -2.463515 22.668971 -1.990416 -1.424773 52.091854 7.968138 -2.701289 19.866300 nan nan nan -1.966140 14.727421 4.286243 5.442545 -1.421473 20.591925 0.406690 0.928982 -8.446676 3.691088 1.215981 2.680342 0.359367 -9.714113 -15.247117 -16.833240 13.411263 9.171174 -59.549708 33.045184 10.875072 -30.871212 -80.242283 49.721882 16.526427 -34.816281 -22.225482 24.116690 -2.043558 4.361195 50.091127 -10.081109 11.947908 170.280313 79.870032 179.934973 -22.685335 32.067010 -29.698842 
-0.630737 -7.169888 94.891113 -134.013607 0.084240 92.432953 4.994669 -6.801724 -34.849862 -5.679687 11.055946 13.281949 3.362971 8.231963 4.420683 nan nan nan 1.399194 -2.052821 21.170680 -1.567237 -2.287608 57.584240 7.742048 -2.689350 19.909294 nan nan nan -2.545544 14.172047 5.086300 5.442309 -1.457840 19.785809 0.569806 0.824916 -8.021069 3.804361 0.954371 2.713935 0.683782 -9.212321 -15.148437 -17.031809 12.982261 8.848981 -59.979943 32.166088 11.150549 -24.027571 -79.952470 43.027683 16.592753 -34.808722 -22.205251 24.219733 -2.026585 3.909863 50.516470 -10.521480 12.164832 171.086462 81.688126 -179.071073 -21.946945 32.069241 -30.622551 
-2.850239 -4.905725 94.374908 -133.507310 -0.191462 92.168521 4.650832 -7.658715 -34.199679 -6.534708 9.917051 15.698837 3.149308 8.027095 3.473697 nan nan nan 1.561691 -1.574345 19.562959 -1.167305 -3.205562 62.925168 7.242598 -2.824636 19.833325 nan nan nan -3.162219 13.739370 5.698486 5.468399 -1.446931 19.336383 0.703287 0.608485 -7.814212 4.004649 0.881991 2.792218 0.910716 -8.781271 -15.009687 -17.324200 12.578842 8.684190 -60.282161 31.160296 11.307266 -18.689541 -79.600978 37.545210 16.362716 -34.891592 -21.324602 24.553216 -1.912611 3.664297 50.826362 -10.843233 12.268002 174.125963 83.569249 -176.572701 -21.444133 32.522896 -31.911192 
-5.082353 -2.645605 93.798370 -133.011761 -0.462405 91.873207 4.266732 -8.419692 -33.418119 -7.576633 8.734768 18.142569 2.880154 7.633432 2.592916 nan nan nan 1.588019 -1.252706 17.865466 -0.895874 -4.073992 68.207767 6.488545 -3.152200 19.416051 nan nan nan -3.763313 13.337652 6.539220 5.484042 -1.420734 18.567802 0.898217 0.347321 -7.559695 4.206547 0.677149 2.968354 1.061392 -8.239364 -14.862369 -17.791659 12.183716 8.632966 -60.563289 30.144254 11.320670 -13.579869 -79.394445 32.139384 16.024295 -34.657125 -20.046357 24.930886 -1.830222 3.472614 51.048515 -11.157669 12.434426 -179.082008 85.413185 -170.190648 -21.273501 32.702667 -33.226765 
-7.322598 -0.407498 93.176041 -132.383309 -0.947989 91.410716 3.629252 -9.433659 -32.273876 -8.725554 7.602249 20.346029 2.888758 7.332529 1.530295 nan nan nan 1.300595 -1.063473 16.191714 -0.754709 -4.976854 73.529890 5.842062 -3.527491 19.017164 nan nan nan -4.511686 12.889919 7.740050 5.425078 -1.459877 17.568521 1.122862 0.071563 -7.206913 4.301200 0.299196 3.324078 1.354479 -7.612852 -14.940120 -18.288060 11.722709 8.481136 -60.722137 29.152738 11.535664 -7.376317 -79.270659 25.696199 15.783188 -34.436009 -19.838395 25.253527 -1.697496 3.312774 51.406476 -11.546391 12.710086 -163.900448 87.187677 -154.819805 -20.882912 32.412784 -33.218470 
-9.412627 1.795289 92.454620 -131.539668 -1.217901 91.230136 3.437518 -10.612302 -31.445797 -10.252870 6.057146 22.331322 3.596728 6.998429 -0.962730 nan nan nan 1.389687 -0.916246 13.920584 -0.790331 -6.127711 79.099194 5.246622 -4.143623 18.387242 nan nan nan -5.112889 12.251146 8.823341 5.383897 -1.467445 16.200206 1.300501 -0.227368 -6.442312 4.465835 0.082120 3.134794 1.517368 -7.200429 -14.429938 -18.452318 11.140824 8.175784 -61.032185 28.016428 11.773137 -1.775738 -78.980588 20.130136 15.096500 -34.740202 -19.830099 25.465251 -1.495485 2.794195 51.817868 -12.114176 12.990042 -123.734659 88.423852 -113.651435 -20.116961 32.143334 -32.815111 
-11.623872 3.997404 91.695694 -130.885923 -1.689597 90.968291 2.826018 -11.862611 -30.125779 -12.022558 3.784416 23.851664 5.450495 6.665002 -5.041679 nan nan nan 0.861460 -0.966197 11.615892 -0.776089 -6.940869 84.569852 4.602985 -5.000826 17.746189 nan nan nan -5.815002 11.720971 9.543467 5.316907 -1.564720 15.731119 1.335119 -0.520266 -6.045403 4.594672 -0.184595 2.771812 1.597052 -6.486953 -13.991447 -18.735848 10.449101 7.761495 -61.105117 27.027351 12.036843 2.962850 -78.735785 15.526515 14.943472 -34.975627 -19.676657 25.802984 -1.233134 2.029807 52.031539 -12.798397 13.413255 -64.713511 87.889451 -53.202198 -19.624322 32.048155 -32.666651 
-13.875676 6.156786 90.899689 -130.378594 -2.159615 90.867718 1.785261 -12.291110 -29.428918 -13.107684 3.203373 26.566758 7.901332 8.135213 -8.304336 nan nan nan 0.200682 -0.984455 8.881095 -0.905597 -7.670981 90.095962 3.777515 -5.829079 17.013043 nan nan nan -6.552710 11.178773 9.996177 5.297057 -1.767030 15.608169 1.313410 -0.745843 -5.960154 4.628816 -0.673064 2.478106 1.727945 -5.559080 -13.729969 -19.268898 9.768998 7.395899 -60.932041 26.199805 12.169498 6.966995 -78.588227 11.597302 15.707957 -34.942342 -19.900464 26.122639 -1.067228 1.337662 52.087060 -13.470317 13.768814 -39.679995 86.500536 -27.213329 -19.830965 31.764531 -32.941229 
-16.108452 8.311074 90.076309 -129.992743 -2.404282 90.796637 0.758624 -12.314559 -28.854232 -13.718588 3.046780 29.614319 10.084475 9.548139 -11.699751 nan nan nan -0.229681 -0.953248 5.862093 -1.236785 -8.267255 95.599986 3.183060 -6.439953 16.212104 nan nan nan -7.013582 10.489456 10.702508 5.244240 -1.866608 14.959762 1.272238 -1.031052 -5.643667 4.731563 -0.938886 2.116399 1.752549 -4.761874 -13.313516 -19.880708 9.299849 6.898215 -60.530344 25.359533 12.355173 10.189898 -78.474361 8.352334 16.424838 -34.853559 -19.730521 26.392822 -1.061307 0.866667 52.063986 -13.993309 14.007009 -26.594230 84.957900 -13.745718 -20.549469 31.368754 -33.222657 
